<svg width="187" height="2698" viewBox="0 0 187 2698" fill="none" xmlns="http://www.w3.org/2000/svg">
<path d="M65.4 32.2H168.4V98.6H153.6V46.4H65.4V32.2ZM54.2 91.6H185V106H54.2V91.6ZM104.8 0.399988H119.8V68.8C119.8 112.2 113.6 155.6 57 184.4C54.4 181.4 48.8 176.2 45 173.8C99.2 147 104.8 108.2 104.8 68.6V0.399988ZM127 98.4C136 133.2 155.6 159.8 186.6 171.6C183.2 174.6 178.4 180.4 176.2 184.6C143.6 170.2 123.6 141.4 113.2 101.8L127 98.4ZM11 12.6L19.4 1.79999C32 7.2 47.8 16.2 55.4 23.2L46.8 35.4C39.2 28.2 23.8 18.6 11 12.6ZM0.4 67L8.6 55.8C21.4 60.6 37.6 69.2 45.6 75.8L37 88.2C29.2 81.4 13.4 72.4 0.4 67ZM6 171.6C16 156.2 30 129.6 40.4 106.8L52 116C42.4 137.2 29.8 162.4 19 181.2L6 171.6ZM61 328.2C60 334.8 59.4 341.8 59 348.4C58.2 371 56.6 418.4 56.6 448.2C56.6 470.2 70.4 477.8 89.4 477.8C126 477.8 146.8 457.4 161.2 436.6L172.4 450.2C158.8 469.2 132.8 494.2 89 494.2C60.2 494.2 40.4 482.4 40.4 449.6C40.4 420 42.4 369.4 42.4 348.4C42.4 341 41.8 334 40.6 328.2H61ZM9.8 667.2C17.4 667 23.8 666.6 27.8 666.2C40.8 664.8 78.4 661.2 115.4 658C137.2 656.2 155.8 655 169.2 654.6L169.4 670.6C157.8 670.4 140.4 670.8 130.2 673.6C101.6 682.8 84.2 713.4 84.2 737C84.2 776 120.8 788.4 153.2 789.8L147.6 806.2C110.4 804.8 68.4 785.2 68.4 740.4C68.4 709.2 87.4 683.8 105.8 673C84.2 675.2 33.4 680.2 11.6 684.8L9.8 667.2ZM87.2 957.8C86.4 960.2 85.6 963.8 85 966.6C81.6 983.4 78.2 1015 78.2 1042.4C78.2 1068.4 83.8 1092.4 90 1111.2L75.4 1115.6C69.6 1097.8 64.2 1069.4 64.2 1044C64.2 1016.6 68.2 984.2 70 967C70.4 963.4 70.6 959.8 70.6 957.2L87.2 957.8ZM55 982.4C90.2 982.4 125 979.6 152.6 973.4L152.8 988.2C124 993.2 84.6 996.2 54.8 996.2C46.2 996.2 30.6 995.4 22.4 995L22 980C29 981.2 46.4 982.4 55 982.4ZM138.4 1006C137.2 1008.6 135.4 1014 134.2 1017.2C122.4 1054.2 102.4 1082 81.4 1098.2C68.6 1108 52.6 1115.4 38.4 1115.4C25.2 1115.4 14.8 1107.4 14.8 1090.4C14.8 1063 40.2 1034.8 69.8 1023.4C83.2 1018.2 99.4 1015.2 112.4 1015.2C150.2 1015.2 174 1037.2 174 1065.2C174 1093.8 155 1118.8 108.6 1126.2L100 1112.8C136 1108.8 158.4 1090.2 158.4 1064.4C158.4 1045 142 1028 112.2 1028C95.4 1028 80.6 1032.8 70.4 1037.4C47.8 1047.4 29.8 1069.4 29.8 1087.8C29.8 1096 33.8 1100 41.2 1100C51.2 1100 64.2 1094.4 77 1083.2C94.8 1067.6 111.2 1046 120.4 1013.6C121.2 1010.6 122.2 1005.2 122.4 1002L138.4 1006ZM28.8 1295C56.6 1298.4 82.8 1298.8 103.2 1296.8C119.6 1295.4 136 1292 150.4 1287.2L152.6 1301.8C139.6 1305.6 122.6 1309 106.6 1310.4C86.4 1312.4 58.4 1312.4 29.8 1309.6L28.8 1295ZM24.8 1336C59 1339.6 93 1339 116.4 1336.2C135.4 1334.2 151.6 1330.2 162.2 1327L164.8 1341.8C153.8 1344.8 138.6 1347.8 121.8 1349.8C97.2 1353 60.2 1353.6 25.8 1351L24.8 1336ZM93.2 1292.4C91.6 1286.6 89.8 1280.4 87.6 1274.6L104.6 1272.4C106.6 1289.2 112.8 1309.4 117.8 1323.6C123.2 1339.2 132 1358.4 142.4 1373.8C144.6 1377 147 1379.8 150 1382.4L141.6 1394.6C130.4 1391.8 111.8 1389.8 98 1388.4L99.2 1376.2C110 1377.2 123 1378.6 129.2 1379.4C118.2 1362.2 109.8 1343 104 1326.8C99 1313 96 1302.4 93.2 1292.4ZM54 1379.2C49.2 1386 45.6 1392.8 45.6 1401.8C45.6 1418.2 60.2 1426.6 91.6 1426.6C110.2 1426.6 124.8 1425.2 139.4 1422.4L138.6 1438.2C124.6 1440.6 109 1441.8 91.8 1441.8C52.8 1441.8 30.8 1430.2 30.4 1404.4C30.4 1393 33.8 1384.6 38.4 1375.8L54 1379.2ZM59.8 1591.2C77 1596.8 119.6 1605 137.4 1606.8L133.6 1622C114.4 1619.4 71.2 1610.6 55.8 1606.6L59.8 1591.2ZM55.4 1627.8C52.8 1641.4 49.2 1671 47.2 1684C66.4 1667.2 88.4 1659.4 112.4 1659.4C143 1659.4 163.4 1677.8 163.4 1701.4C163.4 1737 131.6 1761.2 57.4 1755L52.6 1738.8C115.8 1746.4 146.6 1728.2 146.6 1700.8C146.6 1685 131.6 1673.6 111.2 1673.6C85 1673.6 63.4 1683.4 49.4 1700.4C46.4 1703.8 44.6 1707 43.4 1710.2L28.4 1706.6C32.4 1688.4 37.4 1646.4 38.6 1625.6L55.4 1627.8ZM126.8 1909.2C125.4 1914.2 124.2 1921.2 123.2 1925C116 1958 102 1999.8 86 2021.8C70.8 2043 56.2 2058 38 2058C22.8 2058 10 2045.4 10 2022C10 1996.8 25.4 1970.2 46.6 1956C66.4 1942.6 86 1937.4 106.6 1937.4C145.8 1937.4 174.2 1963.8 174.2 2002.8C174.2 2042.8 145.6 2067 102.6 2073L93.4 2058.8C135.2 2055 158.2 2033.2 158.2 2002.2C158.2 1972.8 137 1951.2 104.8 1951.2C85.4 1951.2 68 1957.8 52.4 1969.4C35.4 1981.6 24.6 2003 24.6 2021C24.6 2034.2 30.4 2042.2 39.4 2042.2C52.4 2042.2 66.4 2025.2 76.6 2009C89.8 1988.6 103.2 1952 108.2 1922.8C109 1918.8 109.6 1912.2 109.4 1907.6L126.8 1909.2ZM44.8 1918.4C45.8 1923.8 47.4 1930.4 49 1936C54.2 1955.6 65.4 1986.4 73.8 2000.4C80.6 2012 90 2025.2 99.6 2034.4L87 2044.6C79 2035.8 71.6 2026 64 2013C54.2 1997.4 42.6 1966.8 35 1941.8C33 1935.4 30.8 1928.8 28.2 1923.6L44.8 1918.4ZM12.2 2254C19.6 2254.8 28.2 2255.2 36.8 2255.2C58.4 2255.2 83.6 2252.6 106.6 2245L107 2259.8C87.4 2265.2 61.2 2269.6 36.8 2269.4C29.4 2269.4 20.8 2269.2 13.4 2269L12.2 2254ZM83.2 2221.4C80.6 2231.2 76.4 2250 71.6 2264.2C62 2293 43.6 2329.4 27 2351.8L11.6 2343.8C29.4 2323 48 2287.4 56.2 2263.8C60.6 2251.2 65 2233.6 65.6 2219.6L83.2 2221.4ZM130.4 2283.2C129.8 2291.4 129.8 2297.4 130 2304.6C130.4 2317.6 132.2 2348 132.2 2361.2C132.2 2377.2 122 2390.2 97.2 2390.2C75.2 2390.2 57.4 2381.4 57.4 2361.4C57.4 2343 74.8 2331.4 97.2 2331.4C130.8 2331.4 156.6 2348.2 173 2362.4L164.6 2376C149.2 2362 126.2 2344.2 96.8 2344.2C82 2344.2 72 2351 72 2360.2C72 2369.4 79.8 2375.8 95.4 2375.8C112 2375.8 117.6 2367 117.6 2356.2C117.6 2341 115.4 2305.2 114.6 2283.2H130.4ZM170.4 2288.4C159.6 2279.2 137.8 2267 124.6 2260.8L132.6 2248.8C147.2 2255 169.8 2268 179.4 2275.2L170.4 2288.4ZM37.6 2556.6C36.6 2561.2 36 2570.8 35.8 2576C35.6 2588.4 35.8 2606.8 37.2 2623.2C40.6 2656.6 50.2 2678.8 64.6 2678.8C74.8 2678.8 84.2 2658.2 89.4 2638.2L102 2652.4C89.8 2686.2 77.8 2697.8 64.2 2697.8C45.2 2697.8 27.2 2679 21.6 2627.2C19.8 2610 19.4 2585.6 19.4 2574C19.4 2569.4 19.4 2560.8 18.2 2556.2L37.6 2556.6ZM141.6 2562C159.6 2585.2 174 2627.8 177 2661.6L160.8 2668C157.4 2632 145.2 2590.8 126.2 2567.4L141.6 2562Z" fill="url(#paint0_linear_1_3)" style="mix-blend-mode:screen"/>
<defs>
<linearGradient id="paint0_linear_1_3" x1="93" y1="-59" x2="93" y2="2785" gradientUnits="userSpaceOnUse">
<stop offset="0.435046" stop-color="#333333"/>
<stop offset="1" stop-color="white"/>
</linearGradient>
</defs>
</svg>
