<?xml version="1.0" standalone="no"?>
<svg xmlns:xlink="http://www.w3.org/1999/xlink" id="wave" style="transform:rotate(0deg); transition: 0.3s" viewBox="0 0 1440 270" version="1.1" xmlns="http://www.w3.org/2000/svg"><defs><linearGradient id="sw-gradient-0" x1="0" x2="0" y1="1" y2="0"><stop stop-color="rgba(63, 40, 0, 1)" offset="0%"/><stop stop-color="rgba(63, 40, 0, 1)" offset="100%"/></linearGradient></defs><path style="transform:translate(0, 0px); opacity:1" fill="url(#sw-gradient-0)" d="M0,27L30,22.5C60,18,120,9,180,4.5C240,0,300,0,360,31.5C420,63,480,126,540,126C600,126,660,63,720,63C780,63,840,126,900,126C960,126,1020,63,1080,31.5C1140,0,1200,0,1260,36C1320,72,1380,144,1440,148.5C1500,153,1560,90,1620,63C1680,36,1740,45,1800,67.5C1860,90,1920,126,1980,126C2040,126,2100,90,2160,85.5C2220,81,2280,108,2340,135C2400,162,2460,189,2520,171C2580,153,2640,90,2700,76.5C2760,63,2820,99,2880,126C2940,153,3000,171,3060,180C3120,189,3180,189,3240,180C3300,171,3360,153,3420,130.5C3480,108,3540,81,3600,99C3660,117,3720,180,3780,193.5C3840,207,3900,171,3960,139.5C4020,108,4080,81,4140,76.5C4200,72,4260,90,4290,99L4320,108L4320,270L4290,270C4260,270,4200,270,4140,270C4080,270,4020,270,3960,270C3900,270,3840,270,3780,270C3720,270,3660,270,3600,270C3540,270,3480,270,3420,270C3360,270,3300,270,3240,270C3180,270,3120,270,3060,270C3000,270,2940,270,2880,270C2820,270,2760,270,2700,270C2640,270,2580,270,2520,270C2460,270,2400,270,2340,270C2280,270,2220,270,2160,270C2100,270,2040,270,1980,270C1920,270,1860,270,1800,270C1740,270,1680,270,1620,270C1560,270,1500,270,1440,270C1380,270,1320,270,1260,270C1200,270,1140,270,1080,270C1020,270,960,270,900,270C840,270,780,270,720,270C660,270,600,270,540,270C480,270,420,270,360,270C300,270,240,270,180,270C120,270,60,270,30,270L0,270Z"/></svg>